<svg xmlns="http://www.w3.org/2000/svg" viewBox="0 0 1200 700" width="1200" height="700" preserveAspectRatio="xMidYMid slice">
<defs>
  <linearGradient id="brandestocloudsvg" x1="0" y1="1" x2="1" y2="0">
    <stop offset="0" stop-color="#C13CFF"/><stop offset=".5" stop-color="#1A3BFF"/><stop offset="1" stop-color="#2FD4FF"/>
  </linearGradient>
  <radialGradient id="glowCestocloudsvg"><stop offset="0" stop-color="#2FD4FF" stop-opacity=".55"/><stop offset="1" stop-color="#2FD4FF" stop-opacity="0"/></radialGradient>
  <radialGradient id="glowMestocloudsvg"><stop offset="0" stop-color="#C13CFF" stop-opacity=".45"/><stop offset="1" stop-color="#C13CFF" stop-opacity="0"/></radialGradient>
  <radialGradient id="glowBestocloudsvg"><stop offset="0" stop-color="#1A3BFF" stop-opacity=".6"/><stop offset="1" stop-color="#1A3BFF" stop-opacity="0"/></radialGradient>
  <pattern id="gridestocloudsvg" width="48" height="48" patternUnits="userSpaceOnUse">
    <path d="M48 0H0V48" fill="none" stroke="#FFFFFF" stroke-opacity=".05" stroke-width="1"/>
  </pattern></defs>
<rect width="1200" height="700" fill="#050B2E"/><ellipse cx="865" cy="130" rx="520" ry="416" fill="url(#glowCestocloudsvg)"/><ellipse cx="317" cy="654" rx="460" ry="368" fill="url(#glowMestocloudsvg)"/><ellipse cx="600" cy="350" rx="600" ry="480" fill="url(#glowBestocloudsvg)"/><rect width="1200" height="700" fill="url(#gridestocloudsvg)"/>
<path d="M0 140 C300 94 500 186 800 140 S1100 94 1200 140" fill="none" stroke="#2FD4FF" stroke-opacity="0.15" stroke-width="3"/><path d="M0 190 C300 151 500 229 800 190 S1100 151 1200 190" fill="none" stroke="#8EA2FF" stroke-opacity="0.21" stroke-width="3"/><path d="M0 240 C300 158 500 322 800 240 S1100 158 1200 240" fill="none" stroke="#C13CFF" stroke-opacity="0.27" stroke-width="3"/><path d="M0 290 C300 212 500 368 800 290 S1100 212 1200 290" fill="none" stroke="#2FD4FF" stroke-opacity="0.33" stroke-width="3"/><path d="M0 340 C300 298 500 382 800 340 S1100 298 1200 340" fill="none" stroke="#8EA2FF" stroke-opacity="0.15" stroke-width="3"/><path d="M0 390 C300 344 500 436 800 390 S1100 344 1200 390" fill="none" stroke="#C13CFF" stroke-opacity="0.21" stroke-width="3"/><path d="M0 440 C300 405 500 475 800 440 S1100 405 1200 440" fill="none" stroke="#2FD4FF" stroke-opacity="0.27" stroke-width="3"/><path d="M0 490 C300 448 500 532 800 490 S1100 448 1200 490" fill="none" stroke="#8EA2FF" stroke-opacity="0.33" stroke-width="3"/><path d="M0 540 C300 478 500 602 800 540 S1100 478 1200 540" fill="none" stroke="#C13CFF" stroke-opacity="0.15" stroke-width="3"/>
<path d="M822 700 L982 420 H1122 L962 700Z" fill="url(#brandestocloudsvg)" opacity=".85"/>
<path d="M982 700 L1062 560 H1152 L1072 700Z" fill="url(#brandestocloudsvg)" opacity=".55"/>
</svg>
