<svg xmlns="http://www.w3.org/2000/svg" viewBox="0 0 1200 700" width="1200" height="700" preserveAspectRatio="xMidYMid slice">
<defs>
  <linearGradient id="brandfacturingsvg" x1="0" y1="1" x2="1" y2="0">
    <stop offset="0" stop-color="#C13CFF"/><stop offset=".5" stop-color="#1A3BFF"/><stop offset="1" stop-color="#2FD4FF"/>
  </linearGradient>
  <radialGradient id="glowCfacturingsvg"><stop offset="0" stop-color="#2FD4FF" stop-opacity=".55"/><stop offset="1" stop-color="#2FD4FF" stop-opacity="0"/></radialGradient>
  <radialGradient id="glowMfacturingsvg"><stop offset="0" stop-color="#C13CFF" stop-opacity=".45"/><stop offset="1" stop-color="#C13CFF" stop-opacity="0"/></radialGradient>
  <radialGradient id="glowBfacturingsvg"><stop offset="0" stop-color="#1A3BFF" stop-opacity=".6"/><stop offset="1" stop-color="#1A3BFF" stop-opacity="0"/></radialGradient>
  <pattern id="gridfacturingsvg" width="48" height="48" patternUnits="userSpaceOnUse">
    <path d="M48 0H0V48" fill="none" stroke="#FFFFFF" stroke-opacity=".05" stroke-width="1"/>
  </pattern></defs>
<rect width="1200" height="700" fill="#050B2E"/><ellipse cx="980" cy="85" rx="520" ry="416" fill="url(#glowCfacturingsvg)"/><ellipse cx="384" cy="483" rx="460" ry="368" fill="url(#glowMfacturingsvg)"/><ellipse cx="600" cy="350" rx="600" ry="480" fill="url(#glowBfacturingsvg)"/><rect width="1200" height="700" fill="url(#gridfacturingsvg)"/>
<polygon points="0,-18 33,1 33,39 0,58 -33,39 -33,1" fill="url(#brandfacturingsvg)" fill-opacity="0.16" stroke="#FFFFFF" stroke-opacity=".08"/><polygon points="430,-18 463,1 463,39 430,58 397,39 397,1" fill="url(#brandfacturingsvg)" fill-opacity="0.16" stroke="#FFFFFF" stroke-opacity=".08"/><polygon points="516,-18 549,1 549,39 516,58 483,39 483,1" fill="url(#brandfacturingsvg)" fill-opacity="0.06" stroke="#FFFFFF" stroke-opacity=".08"/><polygon points="688,-18 721,1 721,39 688,58 655,39 655,1" fill="url(#brandfacturingsvg)" fill-opacity="0.06" stroke="#FFFFFF" stroke-opacity=".08"/><polygon points="946,-18 979,1 979,39 946,58 913,39 913,1" fill="url(#brandfacturingsvg)" fill-opacity="0.16" stroke="#FFFFFF" stroke-opacity=".08"/><polygon points="1032,-18 1065,1 1065,39 1032,58 999,39 999,1" fill="url(#brandfacturingsvg)" fill-opacity="0.06" stroke="#FFFFFF" stroke-opacity=".08"/><polygon points="1204,-18 1237,1 1237,39 1204,58 1171,39 1171,1" fill="url(#brandfacturingsvg)" fill-opacity="0.06" stroke="#FFFFFF" stroke-opacity=".08"/><polygon points="301,58 334,77 334,115 301,134 268,115 268,77" fill="url(#brandfacturingsvg)" fill-opacity="0.06" stroke="#FFFFFF" stroke-opacity=".08"/><polygon points="473,58 506,77 506,115 473,134 440,115 440,77" fill="url(#brandfacturingsvg)" fill-opacity="0.1" stroke="#FFFFFF" stroke-opacity=".08"/><polygon points="645,58 678,77 678,115 645,134 612,115 612,77" fill="url(#brandfacturingsvg)" fill-opacity="0.3" stroke="#FFFFFF" stroke-opacity=".08"/><polygon points="817,58 850,77 850,115 817,134 784,115 784,77" fill="url(#brandfacturingsvg)" fill-opacity="0.06" stroke="#FFFFFF" stroke-opacity=".08"/><polygon points="989,58 1022,77 1022,115 989,134 956,115 956,77" fill="url(#brandfacturingsvg)" fill-opacity="0.3" stroke="#FFFFFF" stroke-opacity=".08"/><polygon points="1161,58 1194,77 1194,115 1161,134 1128,115 1128,77" fill="url(#brandfacturingsvg)" fill-opacity="0.06" stroke="#FFFFFF" stroke-opacity=".08"/><polygon points="1247,58 1280,77 1280,115 1247,134 1214,115 1214,77" fill="url(#brandfacturingsvg)" fill-opacity="0.3" stroke="#FFFFFF" stroke-opacity=".08"/><polygon points="172,134 205,153 205,191 172,210 139,191 139,153" fill="url(#brandfacturingsvg)" fill-opacity="0.3" stroke="#FFFFFF" stroke-opacity=".08"/><polygon points="430,134 463,153 463,191 430,210 397,191 397,153" fill="url(#brandfacturingsvg)" fill-opacity="0.1" stroke="#FFFFFF" stroke-opacity=".08"/><polygon points="602,134 635,153 635,191 602,210 569,191 569,153" fill="url(#brandfacturingsvg)" fill-opacity="0.1" stroke="#FFFFFF" stroke-opacity=".08"/><polygon points="774,134 807,153 807,191 774,210 741,191 741,153" fill="url(#brandfacturingsvg)" fill-opacity="0.06" stroke="#FFFFFF" stroke-opacity=".08"/><polygon points="946,134 979,153 979,191 946,210 913,191 913,153" fill="url(#brandfacturingsvg)" fill-opacity="0.06" stroke="#FFFFFF" stroke-opacity=".08"/><polygon points="1118,134 1151,153 1151,191 1118,210 1085,191 1085,153" fill="url(#brandfacturingsvg)" fill-opacity="0.06" stroke="#FFFFFF" stroke-opacity=".08"/><polygon points="1204,134 1237,153 1237,191 1204,210 1171,191 1171,153" fill="url(#brandfacturingsvg)" fill-opacity="0.1" stroke="#FFFFFF" stroke-opacity=".08"/><polygon points="43,210 76,229 76,267 43,286 10,267 10,229" fill="url(#brandfacturingsvg)" fill-opacity="0.16" stroke="#FFFFFF" stroke-opacity=".08"/><polygon points="215,210 248,229 248,267 215,286 182,267 182,229" fill="url(#brandfacturingsvg)" fill-opacity="0.06" stroke="#FFFFFF" stroke-opacity=".08"/><polygon points="301,210 334,229 334,267 301,286 268,267 268,229" fill="url(#brandfacturingsvg)" fill-opacity="0.16" stroke="#FFFFFF" stroke-opacity=".08"/><polygon points="559,210 592,229 592,267 559,286 526,267 526,229" fill="url(#brandfacturingsvg)" fill-opacity="0.16" stroke="#FFFFFF" stroke-opacity=".08"/><polygon points="731,210 764,229 764,267 731,286 698,267 698,229" fill="url(#brandfacturingsvg)" fill-opacity="0.16" stroke="#FFFFFF" stroke-opacity=".08"/><polygon points="817,210 850,229 850,267 817,286 784,267 784,229" fill="url(#brandfacturingsvg)" fill-opacity="0.06" stroke="#FFFFFF" stroke-opacity=".08"/><polygon points="903,210 936,229 936,267 903,286 870,267 870,229" fill="url(#brandfacturingsvg)" fill-opacity="0.16" stroke="#FFFFFF" stroke-opacity=".08"/><polygon points="989,210 1022,229 1022,267 989,286 956,267 956,229" fill="url(#brandfacturingsvg)" fill-opacity="0.3" stroke="#FFFFFF" stroke-opacity=".08"/><polygon points="1161,210 1194,229 1194,267 1161,286 1128,267 1128,229" fill="url(#brandfacturingsvg)" fill-opacity="0.3" stroke="#FFFFFF" stroke-opacity=".08"/><polygon points="0,286 33,305 33,343 0,362 -33,343 -33,305" fill="url(#brandfacturingsvg)" fill-opacity="0.16" stroke="#FFFFFF" stroke-opacity=".08"/><polygon points="86,286 119,305 119,343 86,362 53,343 53,305" fill="url(#brandfacturingsvg)" fill-opacity="0.1" stroke="#FFFFFF" stroke-opacity=".08"/><polygon points="172,286 205,305 205,343 172,362 139,343 139,305" fill="url(#brandfacturingsvg)" fill-opacity="0.06" stroke="#FFFFFF" stroke-opacity=".08"/><polygon points="344,286 377,305 377,343 344,362 311,343 311,305" fill="url(#brandfacturingsvg)" fill-opacity="0.16" stroke="#FFFFFF" stroke-opacity=".08"/><polygon points="774,286 807,305 807,343 774,362 741,343 741,305" fill="url(#brandfacturingsvg)" fill-opacity="0.06" stroke="#FFFFFF" stroke-opacity=".08"/><polygon points="946,286 979,305 979,343 946,362 913,343 913,305" fill="url(#brandfacturingsvg)" fill-opacity="0.06" stroke="#FFFFFF" stroke-opacity=".08"/><polygon points="1118,286 1151,305 1151,343 1118,362 1085,343 1085,305" fill="url(#brandfacturingsvg)" fill-opacity="0.06" stroke="#FFFFFF" stroke-opacity=".08"/><polygon points="1204,286 1237,305 1237,343 1204,362 1171,343 1171,305" fill="url(#brandfacturingsvg)" fill-opacity="0.1" stroke="#FFFFFF" stroke-opacity=".08"/><polygon points="43,362 76,381 76,419 43,438 10,419 10,381" fill="url(#brandfacturingsvg)" fill-opacity="0.3" stroke="#FFFFFF" stroke-opacity=".08"/><polygon points="129,362 162,381 162,419 129,438 96,419 96,381" fill="url(#brandfacturingsvg)" fill-opacity="0.1" stroke="#FFFFFF" stroke-opacity=".08"/><polygon points="215,362 248,381 248,419 215,438 182,419 182,381" fill="url(#brandfacturingsvg)" fill-opacity="0.1" stroke="#FFFFFF" stroke-opacity=".08"/><polygon points="817,362 850,381 850,419 817,438 784,419 784,381" fill="url(#brandfacturingsvg)" fill-opacity="0.1" stroke="#FFFFFF" stroke-opacity=".08"/><polygon points="903,362 936,381 936,419 903,438 870,419 870,381" fill="url(#brandfacturingsvg)" fill-opacity="0.06" stroke="#FFFFFF" stroke-opacity=".08"/><polygon points="1075,362 1108,381 1108,419 1075,438 1042,419 1042,381" fill="url(#brandfacturingsvg)" fill-opacity="0.1" stroke="#FFFFFF" stroke-opacity=".08"/><polygon points="1161,362 1194,381 1194,419 1161,438 1128,419 1128,381" fill="url(#brandfacturingsvg)" fill-opacity="0.06" stroke="#FFFFFF" stroke-opacity=".08"/><polygon points="1247,362 1280,381 1280,419 1247,438 1214,419 1214,381" fill="url(#brandfacturingsvg)" fill-opacity="0.16" stroke="#FFFFFF" stroke-opacity=".08"/><polygon points="0,438 33,457 33,495 0,514 -33,495 -33,457" fill="url(#brandfacturingsvg)" fill-opacity="0.16" stroke="#FFFFFF" stroke-opacity=".08"/><polygon points="172,438 205,457 205,495 172,514 139,495 139,457" fill="url(#brandfacturingsvg)" fill-opacity="0.16" stroke="#FFFFFF" stroke-opacity=".08"/><polygon points="258,438 291,457 291,495 258,514 225,495 225,457" fill="url(#brandfacturingsvg)" fill-opacity="0.06" stroke="#FFFFFF" stroke-opacity=".08"/><polygon points="602,438 635,457 635,495 602,514 569,495 569,457" fill="url(#brandfacturingsvg)" fill-opacity="0.06" stroke="#FFFFFF" stroke-opacity=".08"/><polygon points="774,438 807,457 807,495 774,514 741,495 741,457" fill="url(#brandfacturingsvg)" fill-opacity="0.3" stroke="#FFFFFF" stroke-opacity=".08"/><polygon points="860,438 893,457 893,495 860,514 827,495 827,457" fill="url(#brandfacturingsvg)" fill-opacity="0.06" stroke="#FFFFFF" stroke-opacity=".08"/><polygon points="946,438 979,457 979,495 946,514 913,495 913,457" fill="url(#brandfacturingsvg)" fill-opacity="0.3" stroke="#FFFFFF" stroke-opacity=".08"/><polygon points="43,514 76,533 76,571 43,590 10,571 10,533" fill="url(#brandfacturingsvg)" fill-opacity="0.1" stroke="#FFFFFF" stroke-opacity=".08"/><polygon points="129,514 162,533 162,571 129,590 96,571 96,533" fill="url(#brandfacturingsvg)" fill-opacity="0.3" stroke="#FFFFFF" stroke-opacity=".08"/><polygon points="301,514 334,533 334,571 301,590 268,571 268,533" fill="url(#brandfacturingsvg)" fill-opacity="0.3" stroke="#FFFFFF" stroke-opacity=".08"/><polygon points="559,514 592,533 592,571 559,590 526,571 526,533" fill="url(#brandfacturingsvg)" fill-opacity="0.1" stroke="#FFFFFF" stroke-opacity=".08"/><polygon points="817,514 850,533 850,571 817,590 784,571 784,533" fill="url(#brandfacturingsvg)" fill-opacity="0.06" stroke="#FFFFFF" stroke-opacity=".08"/><polygon points="1161,514 1194,533 1194,571 1161,590 1128,571 1128,533" fill="url(#brandfacturingsvg)" fill-opacity="0.16" stroke="#FFFFFF" stroke-opacity=".08"/><polygon points="258,590 291,609 291,647 258,666 225,647 225,609" fill="url(#brandfacturingsvg)" fill-opacity="0.06" stroke="#FFFFFF" stroke-opacity=".08"/><polygon points="774,590 807,609 807,647 774,666 741,647 741,609" fill="url(#brandfacturingsvg)" fill-opacity="0.06" stroke="#FFFFFF" stroke-opacity=".08"/><polygon points="860,590 893,609 893,647 860,666 827,647 827,609" fill="url(#brandfacturingsvg)" fill-opacity="0.16" stroke="#FFFFFF" stroke-opacity=".08"/><polygon points="946,590 979,609 979,647 946,666 913,647 913,609" fill="url(#brandfacturingsvg)" fill-opacity="0.16" stroke="#FFFFFF" stroke-opacity=".08"/><polygon points="1032,590 1065,609 1065,647 1032,666 999,647 999,609" fill="url(#brandfacturingsvg)" fill-opacity="0.16" stroke="#FFFFFF" stroke-opacity=".08"/>
<path d="M907 700 L1067 420 H1207 L1047 700Z" fill="url(#brandfacturingsvg)" opacity=".85"/>
<path d="M1067 700 L1147 560 H1237 L1157 700Z" fill="url(#brandfacturingsvg)" opacity=".55"/>
</svg>
